<svg xmlns="http://www.w3.org/2000/svg" width="200" height="200" viewBox="0 0 200 200" fill="none">
<path d="M 104.56,6.04 C 107.18,6.46 109.77,7.58 111.78,8.72 L 117.32,10.66 C 113.28,8.07 108.91,6.41 105.16,5.68 L 104.56,6.04 Z" fill="black"/>
<path d="M 138.91,27.97 C 135.81,21.23 130.77,16.47 123.92,13.3 C 118.79,10.86 109.08,6.78 101.58,4.96 L 100.71,4.5 H 97.33 C 91.77,5.28 88.23,5.78 81.88,10.74 C 74.97,14.65 67.88,20.01 65.76,25.62 C 62.48,32.36 61.64,37.24 61.94,40.18 L 62.18,40.02 L 62.34,44.9 L 62.02,44.82 L 62.97,47.18 L 62.65,47.42 C 63.21,53.03 66.23,58.96 69.81,63.92 L 69.97,63.76 C 66.23,58.23 64.81,55.13 63.86,50.01 L 64.18,47.73 L 64.66,48.37 C 64.9,55.61 71.67,66.67 77.76,69.46 C 79.41,70.22 80.21,70.22 80.85,69.7 L 80.53,68.82 L 82.48,69.94 L 84.35,69.86 L 86.14,69.38 L 85.98,68.35 L 83.12,65.91 C 76.19,59.12 73.61,50.73 73.77,43.65 C 73.93,36.26 78.97,31.02 87.23,26.06 C 92.19,23.12 94.86,21.02 98.06,20.78 C 102.26,20.78 109.77,24.86 116.09,27.81 C 124.75,31.89 127.77,36.69 128.33,46.26 C 128.73,52.95 125.16,59.61 120.12,66.39 L 117.01,69.14 L 115.67,72.39 L 122.11,68.82 L 121.39,71.18 L 127.21,67.03 L 126.02,69.62 C 131.13,66.31 136.17,60.63 138.22,54.93 C 140.27,49.81 142.14,44.66 141.58,39.31 C 141.18,36.06 140.23,31.73 138.91,27.97 Z M 140.91,46.42 L 140.67,46.11 C 141.15,43.83 141.23,41.47 140.75,38.72 L 141.15,39.36 C 141.54,41.95 141.54,43.97 140.91,46.42 Z M 138.12,32.72 C 136.33,29.04 134.32,26.52 132.28,24.16 L 132.52,23.76 C 134.91,26.12 137.01,29.28 138.12,32.72 Z" fill="black"/>
<path d="M 195.82,97.86 C 195.5,91.36 193.63,86.24 189.81,81.61 C 186.53,75.11 183.07,70.46 177.16,66.39 C 171.43,63.45 167.01,61.87 160.61,61.79 L 159.97,62.19 L 155.47,62.27 L 155.71,62.59 C 150.17,62.35 140.75,64.87 136.57,69.14 L 135.07,70.62 L 135.39,70.86 C 138.87,67.18 143.37,65.35 148.91,63.92 L 149.55,64.32 L 152.13,63.45 L 152.37,63.05 L 151.18,62.97 C 145.11,64.16 140.43,65.91 136.61,69.7 L 134.11,71.72 L 129.33,78.96 L 129.17,80.7 L 129.57,80.94 L 129.09,86.16 L 130.41,86.64 C 136.06,78.6 146.61,73.16 156.68,73.32 C 165.51,73.32 170.13,78.76 177.28,92.32 C 178.71,95.26 178.87,97.62 178.31,100.15 C 176.84,106.57 171.94,117.95 167.96,122.66 C 164.48,126.73 158.31,128.16 152.93,128.08 C 146.33,127.92 139.81,123.93 133.28,119.28 L 131.09,116.92 L 127.61,115.17 L 127.77,116.92 L 130.49,120.75 L 128.01,119.01 L 131.41,124.77 L 129.01,123.81 L 133.12,128.76 L 131.33,128.08 C 137.05,135.24 147.12,139.79 156.72,141.61 L 160.73,141.53 C 172.78,139.87 182.77,132.32 187.92,121.02 C 190.58,115.81 195.06,107.61 195.78,103.14 L 195.94,101.04 L 195.82,97.86 Z M 138.68,136.01 L 134.91,133.73 L 134.19,132.61 L 134.75,132.77 L 139.07,135.71 L 143.77,137.81 L 138.68,136.01 Z M 166.81,138.8 L 175.23,134.64 L 175.71,135.04 L 166.81,138.8 Z M 194.62,107.37 L 192.61,112.89 L 192.13,112.73 L 195.02,105.41 L 194.62,107.37 Z" fill="black"/>
<path d="M 136.81,158.06 L 136.97,157.74 L 136.65,153.91 L 136.01,152.41 L 136.49,151.37 L 135.07,146.15 L 134.91,146.47 C 133.64,141.59 131.37,137.26 127.81,134.01 L 123.68,131.06 L 119.42,129.4 L 119.18,130.04 L 121.11,131.5 L 119.06,130.47 L 116.09,129.72 L 115.03,130.36 L 113.68,130.04 L 113.04,130.71 L 113.52,132.37 C 121.11,138.64 126.65,147.78 126.49,157.43 C 126.34,164.82 121.87,169.46 112.72,174.42 C 107.78,177.03 106.07,178.86 102.22,178.54 C 96.91,178.54 91.22,174.98 84.62,172.23 C 76.61,168.55 72.11,164.66 71.79,154.62 C 71.47,146.67 76.37,138.64 82.48,132.06 L 84.15,127.72 L 83.32,127.8 L 77.25,132.06 L 78.44,128.76 L 73.65,132.69 L 73.25,132.06 L 69.89,134.72 L 65.64,140.42 L 62.77,146.71 L 62.53,146.31 C 63.94,141.28 66.71,136.94 70.09,133.61 L 69.77,133.37 C 64.38,138.25 60.12,146.51 58.33,153.91 L 57.53,155.93 C 56.62,166.63 62.46,177.61 71.91,183.88 L 74.77,185.71 L 84.71,190.85 L 91.22,193.71 L 97.29,195.13 L 97.69,194.9 L 99.12,195.5 L 102.02,195.26 C 107.82,194.38 111.72,192.96 117.78,188.62 C 124.63,184.79 129.77,181.11 133.88,174.26 C 136.69,168.55 137.92,163.82 137.68,159.04 L 136.81,158.06 Z M 60.94,167.27 L 61.26,167.11 L 66.04,175.46 L 65.56,175.62 L 60.94,167.27 Z M 58.61,159.08 L 58.21,156.13 L 58.61,155.73 V 159.08 Z M 83.04,190.18 L 84.31,190.34 L 86.89,191.76 L 86.73,192.08 L 83.04,190.18 Z M 90.02,193.12 L 93.31,193.91 V 194.3 L 89.74,193.12 H 90.02 Z M 135.63,151.06 L 134.91,148.03 L 135.31,147.87 L 135.95,150.9 L 135.63,151.06 Z M 135.07,147.23 L 131.09,138.01 L 131.41,137.77 L 135.39,146.99 L 135.07,147.23 Z" fill="black"/>
<path d="M 119.62,98.02 L 119.86,97.14 L 118.51,93.31 L 116.41,90.06 L 116.65,89.66 L 113.52,85.41 L 113.04,85.25 L 110.99,82.63 L 108.14,81.05 L 101.21,79.63 L 100.31,80.03 L 99.04,79.63 L 93.89,80.82 L 93.17,81.46 L 89.58,82.23 L 85.62,85.93 L 82.48,90.34 L 80.17,97.06 L 80.33,97.46 L 79.53,100.41 L 80.57,103.66 L 80.25,103.5 C 80.65,106.76 82.68,109.51 84.91,112.13 L 85.15,112.45 C 89.02,116.68 92.71,120.36 99.32,120.75 L 102.18,120.08 L 103.09,120.01 C 108.22,117.91 114.91,114.73 117.78,107.53 C 119.54,103.46 120.18,101.72 119.62,98.02 Z" fill="black"/>
<path d="M 72.11,81.29 L 70.09,77.73 L 72.47,79.87 L 68.42,73.8 L 69.85,73.32 L 68.26,70.78 L 67.86,70.14 L 69.37,70.86 C 64.81,65.63 58.29,62.15 52.39,60.13 L 48.33,58.71 L 46.02,57.75 L 45.11,58.07 L 44.21,57.51 L 37.68,57.91 L 32.82,58.95 C 24.21,62.11 17.12,68.15 12.56,77.37 L 11.77,78.96 L 6.22,89.82 L 5.03,94.62 L 4.71,97.86 L 4.31,99.05 C 4.07,105.65 5.74,112.05 9.86,117.83 C 13.24,123.77 15.83,129.08 22.84,134.04 L 29.07,136.7 C 33.22,137.97 36.96,138.44 40.09,138.05 L 40.33,137.57 L 45.03,137.65 L 45.27,137.18 L 47.61,137.42 L 48.88,136.66 L 49.68,137.06 C 55.14,135.56 60.54,133.13 63.94,130.19 L 63.62,129.72 C 60.14,132.57 55.98,134.68 51.31,135.79 L 50.51,135.31 L 47.53,136.19 L 46.94,135.71 C 53.46,134.84 63.78,129.48 68.18,124.13 L 70.13,120.79 L 70.21,119.05 L 69.41,119.36 L 70.52,113.94 L 69.73,113.38 L 66.67,117.12 C 60.26,122.98 52.59,126.53 42.26,126.53 C 34.61,126.53 29.71,120.16 25.17,111.22 C 22.27,106.68 20.32,103.58 22.03,97.86 C 24.34,90.34 27.92,82.31 31.82,77.17 C 35.61,73.24 40.93,71.66 46.26,71.66 C 53.78,71.58 60.78,76.06 67.31,81.02 L 69.53,83.46 L 72.79,84.81 L 70.78,80.54 L 72.11,81.29 Z M 22.03,67.42 C 25.01,64.4 28.16,62.35 31.82,61.11 L 32.06,61.43 C 28.91,62.62 26.05,64.44 23.19,66.87 L 22.03,67.42 Z M 40.77,58.63 L 44.13,57.99 L 44.37,58.47 L 41.01,58.95 L 40.77,58.63 Z M 54.14,63.17 L 55.02,62.86 L 57.97,63.72 L 64.14,67.26 L 57.73,64.16 L 54.14,63.17 Z" fill="black"/>
</svg>