<svg xmlns="http://www.w3.org/2000/svg" width="250" height="250" viewBox="0 0 250 250" fill="none">
<path d="M 196.08,69.47 C 193.82,52.16 183.18,36.17 166.36,25.96 C 157.92,20.77 148.41,18.71 139.68,13.96 C 134.82,11.61 131.75,11.16 125.25,10.73 C 123.75,10.63 123.41,11.11 122.98,11.7 C 122.21,11.66 121.41,11.53 120.97,12.02 C 120.22,12.83 119.79,13.26 118.72,13.34 C 116.22,13.56 109.49,18.11 100.13,22.86 C 82.06,32.13 70.17,45.79 65.21,59.89 C 61.28,70.96 65.89,89.87 73.06,97.43 C 74.83,99.35 76.87,101.57 77.58,101.31 C 78.28,101.05 75.98,98.71 75.09,97.16 C 76.82,97.16 79.63,99.97 80.92,101.09 C 83.18,103.1 86.98,105.26 87.87,104.87 C 88.63,104.52 84.06,97.83 82.06,93.98 C 78.95,88.11 76.41,80.17 78.71,71.41 C 83.27,54.05 102.05,45.61 113.04,40.33 C 118.01,38.22 124.78,34.76 125.54,34.94 C 127.41,36.86 128.71,37.3 131.29,38.53 C 138.99,42.12 147.72,45.21 153.31,48.13 C 166.92,55.18 174.31,65.48 176.72,78.91 C 179.07,90.94 173.72,99.79 165.24,108.8 C 164.35,109.79 165.42,110.36 166.87,109.83 C 168.01,109.39 168.99,108.86 170.02,108.16 C 170.68,108.11 170.38,109.92 169.94,110.36 C 170.74,111.48 177.02,109.22 179.92,107.39 C 188.73,102.16 196.39,86.75 196.22,74.98 C 196.56,73.48 196.39,71.09 196.08,69.47 Z" fill="black"/>
<path d="M 243.09,161.87 C 242.02,147.11 234.98,127.04 220.81,119.28 C 211.83,115.39 203.19,113.61 192.92,115.02 C 189.93,115.46 184.21,116.08 183.67,117.75 C 184.65,117.75 187.42,117.22 188.22,117.61 C 186.27,118.69 181.93,120.1 179.16,122.15 C 177.21,123.27 175.71,123.62 177.12,123.97 C 177.65,124.73 185.35,123.62 188.73,123.57 C 200.97,122.82 213.12,129.18 218.04,139.94 C 221.33,147.06 222.22,154.91 221.68,165.39 L 219.82,186.35 V 188.03 C 219.73,188.56 219.43,188.91 218.99,189.21 C 211.12,193.91 200.04,206.68 184.12,212.18 C 173.18,216.07 160.41,214.99 151.76,210.29 C 143.12,207.08 139.22,197.86 136.06,188.07 C 134.72,185.45 133.88,186.35 133.66,191.01 C 133.53,192.18 133.44,192.98 132.91,192.94 C 132.25,191.82 132.03,189.43 130.96,189.43 C 129.72,189.43 127.41,197.19 127.54,201.61 C 127.41,207.82 130.92,214.18 135.22,220.1 C 140.72,227.31 147.63,232.54 158.93,236.08 C 166.01,238.56 173.84,239.18 183.18,237.72 C 195.91,235.94 205.92,230.84 211.83,226.65 C 217.22,223.11 221.82,218.6 226.78,214.97 C 231.91,211.68 237.95,206.03 239.99,202.61 C 240.79,201.21 240.79,199.01 241.72,197.41 C 242.38,196.33 242.16,195.34 241.72,194.31 C 242.52,192.91 242.22,188.91 242.61,181.11 C 242.87,175.42 243.31,168.03 243.09,161.87 Z" fill="black"/>
<path d="M 118.32,111.48 C 111.11,111.48 102.89,119.92 101.28,124.21 C 100.89,126.83 99.07,131.21 97.91,134.93 C 97.47,135.73 97.73,137.09 97.73,137.79 C 97.29,138.92 97.91,139.31 98.04,140.21 C 98.34,144.41 99.91,148.61 103.29,154.26 C 106.92,160.13 112.42,163.63 120.08,166.21 C 121.43,166.74 124.86,167.13 126.11,166.74 C 126.55,166.12 127.71,166.74 128.64,166.21 C 129.48,165.68 130.73,165.68 131.48,165.2 C 132.1,165.64 133.17,165.02 133.79,164.49 C 134.68,164.75 135.12,164.31 136.01,163.61 C 137.08,163.87 137.74,163.12 138.72,162.32 C 139.61,162.58 140.81,161.68 141.61,160.78 C 142.36,161.04 142.94,160.18 143.42,159.33 C 144.67,159.11 145.82,157.06 147.37,155.51 C 148.62,154.71 149.51,153.68 149.38,152.13 C 149.64,151.74 150.12,151.21 150.08,150.22 C 151.23,149.32 151.76,147.06 153.32,145.14 C 154.52,143.74 153.99,142.02 153.41,139.01 C 153.32,137.93 153.62,137.13 153.84,136.14 C 153.93,135.11 152.73,133.94 153.26,132.81 C 151.61,125.12 146.44,117.13 140.72,113.7 C 137.73,111.22 133.79,109.82 129.06,109.56 C 126.81,109.56 124.69,109.34 123.28,109.82 C 121.94,110.12 120.38,110.93 118.32,111.48 Z" fill="black"/>
<path d="M 142.99,115.91 L 143.74,116.08 L 143.91,116.61 L 144.53,116.35 L 142.99,115.09 V 115.91 Z" fill="black"/>
<path d="M 137.73,111.71 L 138.22,111.62 L 138.97,112.06 L 138.58,111.21 L 137.73,111.08 V 111.71 Z" fill="black"/>
<path d="M 132.34,110.21 L 132.91,110.08 V 110.52 L 132.34,110.21 Z" fill="black"/>
<path d="M 118.63,197.32 C 117.83,197.06 116.94,200.22 116.28,200.44 C 115.62,200.66 116.64,197.11 116.64,194.11 C 116.64,191.1 116.94,187.81 116.01,188.11 C 113.84,188.73 110.72,200.31 106.51,205.63 C 100.01,213.84 92.84,215.76 83.01,215.76 C 70.72,215.33 57.16,207.12 50.12,202.42 C 45.82,200.08 38.21,194.32 36.61,193.09 C 36.22,190.93 36.35,187.08 35.92,184.07 C 33.87,173.72 31.42,164.83 31.72,154.91 C 31.72,141.03 39.72,127.82 51.31,121.21 C 57.81,117.72 64.72,117.72 70.22,118.34 C 73.03,118.69 78.11,120.99 78.68,120.64 C 79.93,120.29 78.33,118.61 76.77,117.06 C 75.7,116.12 75.22,115.09 76.77,115.52 C 78.46,116.14 77.62,114.22 75.45,112.31 C 71.28,108.06 64.37,105.22 56.06,105.13 C 49.11,105.39 42.16,105.92 36.08,108.67 C 32.14,110.68 27.32,113.78 24.21,116.83 C 12.11,128.17 7.29,141.71 6.04,158.32 C 4.79,168.62 7.33,177.81 9.15,187.12 C 10.04,194.56 10.43,198.71 13.68,203.9 C 14.84,205.21 18.91,209.63 19.89,209.72 C 20.33,209.76 19.44,208.68 19.89,208.9 C 22.38,211.11 26.81,213.73 29.81,215.51 C 38.91,222.41 47.91,228.06 59.07,231.31 C 65.11,233.7 70.13,234.41 77.3,234.15 C 86.21,234.15 92.25,232.61 99.29,227.91 C 107.28,222.11 115.92,211.63 118.63,197.32 Z" fill="black"/>
<path d="M 98.98,143.09 L 98.63,142.61 V 144.11 L 98.98,143.09 Z" fill="black"/>
</svg>