<svg xmlns="http://www.w3.org/2000/svg" width="200" height="200" viewBox="0 0 200 200">
<!-- SVG created with Arrow, by QuiverAI (https://quiver.ai) -->
  <path d="m195.5 78.18c-0.55-0.47 0.03-1.89-1.18-2.37-2.22-0.92-3.12-6.22-10.81-9.53-4.9-1.81-7.2-3.1-9.29-4.32-3.4-1.69-6.2-3.4-14.74-3.11-3.62 0.43-7.17 1.3-10.53 2.64l2.07-0.22 1.65-0.18c-4.51 2.06-13.11 4.93-20.02 9.7-9.12 6.32-12.52 11.65-12.7 19.1-0.05 1.57 1.28 1.37 1.93 0.03 0.44-0.91 1.28-0.41 1.28 0 0 0.77 0.66 0.53 2.74-1.77 3.83-4.14 6.75-6.28 12.93-9.17 7.3-3.42 12.54-4.65 18.33-5.07 4.07-0.3 5.54 1.04 8.85 3.15 2.31 1.55 4.74 2.95 7.26 4.17-3.22 7.45-5.34 14.42-11.75 17.38-3.53 1.05-7.36 2.62-10.73 3.85-5.79 1.57-13.79 2.68-23.43 2.47 0.44 1.13 1.8 2.08 4.86 2.96l-1.17 1 3.91 1.62-3.21 0.6 2.4 1.95 3.9 1.75-2.86-0.36c1.46 1.71 4.57 4.81 11.67 4.86 8.14 0 13.59-2.5 21.09-5 6.38-2.38 11.01-4.35 16.8-13.37 4.26-6.16 6.48-11.77 10.01-18.23 1.01-2.05 1.1-3.05 0.74-4.53z" fill="#000"/>
  <path d="m165.7 153.3c-1.79-6.08-5.64-10.59-7.05-12.58l0.43 1.37 1.8 2.93-0.74-0.22c-3.22-5.03-14.08-17.55-25.2-22.41-3.53-1.89-5.85-1.89-10.16-1.71-2.53 0.12-3.19 0.79-2.18 2.36l1.8 1.83-2.32 0.05c-0.92 0.52-0.18 1.95 3.35 3 8.6 3.59 12.3 8.89 15.83 13.13 6.04 7.63 8.43 12.25 8.17 17.01-1.34 5.91-2.04 8.92-2.41 12.71-9.29-0.36-15.89-1.36-19.79-5.9-3.05-4.04-5.15-6.99-8.84-11.13-3.53-5.82-6.15-12.11-7.75-20.13l-1.74 5.29-1.06-0.52-0.74 3.59-1.06-2.25-1.26 5.68-1.17-1.57-0.92 4.94-0.44-3.84c-1.27 2.14-1.44 5.99-0.91 8.81 1.17 6.15 4.44 11.26 9.57 18 5.45 7.29 9.19 12.1 19.68 14.93 7.3 1.95 14.6 2.73 23.1 3.91 1.54 0.19 2.46-0.51 3.79-1.18 0.44-0.18 0.27-1.33 1.1-1.7 1.8-0.95 5.33-7.13 6.16-11.72 1.24-8.81 2.94-14.71 0.96-22.68z" fill="#000"/>
  <path d="m117.1 103.2c-0.36-2.11-0.73-3-1.31-4.32-1.59-2.8-3.9-5.14-6.73-6.7-2.07-1.34-3.91-2.23-6.97-2.8-1.01-0.36-2.17-0.18-3.18 0.34-2.72 0.06-5.35 0.88-7.57 2.46-1.93 0.47-3.63 1.7-4.74 3.51-1.41 1.57-2.51 3.44-3.21 5.51-0.7 2.06-1.13 4.12-1.31 6.42 0.09 1.46 0.52 2.86 1.22 4.08-0.09 1.05 0.27 2.03 1.01 2.69 0.7 2.3 2.11 3.93 4.42 6.04 2.08 2.5 4.06 3.2 7.01 4.45 1.98 0.89 4.05 0.95 6.03 0.2l0.74 0.25 1.16-0.66 0.7 0.36 1.33-1.05 1.26 0.24 1.98-1.82 0.65 0.18 0.44-1.45 0.92-0.12c1.16-1.96 2.81-4.23 4.27-6.34 1.7-3.59 2.14-6.87 1.7-11.29l0.18-0.18zm-34.01 4.6-0.36-0.66 0.53-2.36 0.36 1.34-0.53 1.68zm1.01-5.68-0.36 0.24 0.92-2.3 0.18 0.24-0.74 1.82zm8.6-9.94-0.65-0.47 2.44-0.67 0.36 0.47-2.15 0.67zm17.1 1 0.36-0.12 1.16 1.05-0.43 0.18-1.09-1.11zm6.39 7.91-0.36-1.03 0.54 0.41-0.18 0.62zm-0.36 14.28-0.27-0.36 0.54-0.78 0.27 0.25-0.54 0.89z" fill="#000"/>
  <path d="m94.16 135.1c-0.92-1.18-1.1-0.66-2.02 1.61l-1.45-1.81-0.74 0.95c-1.17 5.33-0.99 9.91-6.02 18.55-4.26 6.73-8.25 12.78-12.42 15.23-3.53 1.89-8.34 1.53-12.5 2.2l-4.81 0.18c-1.79-8.3-3.25-16.6 0.28-21.3 2.63-2.95 4.09-6.49 6.8-9.59 5.88-6.46 10.91-9.99 17.84-14.26l-0.36-0.95-5.27 0.95 0.74-1.57-2.31 0.36 0.74-2.1-4.59 0.46 1.79-1.58-2.72 0.18-2.39 0.71 1.97-1.86c-3.05 0.36-6.67 0.6-10.51 3.25-5.96 3.53-17.17 18.51-19.8 24.69-1.88 4.52-1.97 6.22-1.61 14.52 0.36 5.89 2.15 13.04 2.71 17.4 0.65 5.18 2.3 5.89 4.61 7.34l0.92-0.12c4.44 1.45 7.75 2.27 12.19 1.81 4.73-0.54 7.69-1.69 12.4-2.15 8.05-1.46 12.04-4.88 18.09-12.09l1.7-2.61-2.07 2.22-0.74-0.36c7.1-10.32 12.46-21.58 12.1-31.42-0.18-3.53-0.83-6.23-2.55-8.84z" fill="#000"/>
  <path d="m127.8 54.09c-0.27-9.19 0.65-17.07-4.62-24.38-4.63-6.62-12.13-13-17.07-18.51-1.74-2.06-3.96-2.52-5.42-2.4l-0.44-0.24-1.46 0.67-0.53-0.18c-3.13 1.81-7.03 1.81-10.94 5.66-5.54 6.08-9.61 9.03-12.15 14.11-2.62 4.99-2.8 10.1-3.16 16.89l0.65 0.19 0.54-3.67 0.53-0.18c-0.74 11.07 0.58 22.06 5.62 32.37 2.3 4.69 5.35 6.75 9.52 8.47 1.16 0.36 1.69-0.59 1.16-2.29l0.18-1.24 1.16 1.57c1.01-0.78-0.32-3.28-2.95-8.49-4.17-8.64-3.99-22.07-1.46-30.51 1.17-3.67 5.33-5.92 11.83-12.55 4.44 5.45 10.23 7.56 11.93 15.86 0.43 1.71-0.27 5.37 0.09 12.17-0.09 5.44-2.81 17.13-5.76 23.19l0.36 0.57 4.35-4.36-0.09 1.68 1.55-1.95 0.74 1.11 5.7-4.64-0.44 2.95c6.93-4.67 9.55-9.09 10.58-21.87z" fill="#000"/>
  <path d="m73.87 73.53c-4.81-5.34-11.1-7.4-20.3-10.68-7.41-2.58-10.79-3.69-16.75-3.45-6.38 0.67-9.91 3.01-15.7 5.43-4.44 1.95-7.56 4.19-13.2 6.69-2.95 1.63-3.87 3.9-3.92 5.79l0.65 0.24c-0.53 4.66-0.09 9.61 2.12 13.97s3.32 5.59 5.2 9.6c4.08 7.82 11.09 10.61 19.64 14.1l0.92-0.18-3.75-2.33c9.55 3.07 19.46 4.95 28.66 4.48 5.54-0.67 9.8-1.03 12.85-4.13l2.12-2.16c0.83-1.06 0.18-2.17-1.37-1.7l-1.01-0.47 0.54-2.11c-3.37 0.52-5.44 1.41-13.4 0.94-8.93-0.82-18.13-4.27-23.76-7.47-4.08-2.57-5.24-8.49-9.5-16.46 7.7-3.79 10.23-6.15 17.34-6.39 3.53 0 8.43 2.48 15.54 4.19 6.38 2.45 14.34 7.31 18.97 12.28l0.65-0.24-2.22-5.73 1.89 1.17-1.33-3.95 1.56 1.23-2.62-7.15 2.12 2.45c-0.65-2.57-0.29-5.4-1.94-7.96z" fill="#000"/>
</svg>