<svg xmlns="http://www.w3.org/2000/svg" width="256" height="256" viewBox="0 0 256 256">
<!-- SVG created with Arrow, by QuiverAI (https://quiver.ai) -->
  <path d="m249.2 192.7c-0.32-2.43-1.81-3.6-3.15-4.7-2.21-1.84-3.55-4.06-5.16-6.88-5.03-8.66-16.69-19.91-26.77-21.92l-2.21-0.32c3.88-4.32 7.92-10.12 9.69-14.98 4.53-11.49 7.27-22.82 9.32-38.55 1.19-7.72 3.24-14.83 6.22-19.31 2.05-3.23 2.86-6.22 0.48-8.91-0.48-1.1-1.13-2.05-1.76-2.99 0-0.48-0.16-1.27-0.8-1.91-0.63-0.64-0.79-1.59-1.59-2.54-1.73-1.59-5.76-2.54-7.34-1.91-3.71 1.59-7.9 0.64-14.86 0.32-10.08 0.64-18.38 0.8-27.5 5.28-3.63 1.23-6.61 4.22-10.44 6.44-3.14-11.72-10.8-21.49-21.2-29.7-3.77-2.84-5.18-5.05-6.46-6.98 1.89 1.77 3.94 3.51 5.99 5.1 7.28 5.26 12.47 12.52 16.82 20.98-2.21-5.1-6.74-11.21-13.86-17.34-5.01-4-7.55-7.48-8.51-9.54-2.33-2.83-5.02-5.21-7.23-7.89-0.32-2.43-1.43-3.22-2.71-4.01-2.29-2.22-4.34-4.43-8.37-4.45h-1.41c-0.8-0.34-1.6-0.34-2.4 0h-0.32c-2.85 0.64-4.44 2.86-6.33 5.24-9.92 12.54-27.12 24.94-34.08 46.37l-0.48 2.06-0.32 2.23c-4.69-1.12-5.49-4.45-11.65-6.34-9.59-2.84-16.95-3.8-28.45-3.48-3.73 0.16-7.2 0.32-10.34-0.95-3.73-1.43-6.87 0.32-9.16 3.65-0.8 0.47-1.28 1.26-1.44 2.36-0.48 0.47-0.8 1.11-0.96 1.9-1.44 2.22-3.17 5.85-1.59 8.58 5.02 8.66 6.75 16.22 8.04 27.94 2.05 13.37 6.58 32.58 15.01 42.66l2.21 2.53-5.34 1.59c-10.77 3.99-20.66 15.37-26.66 24.67-2.05 2.9-5.93 5.28-6.12 9.12 0 0.63 0.16 1.27 0.32 1.75-0.64 0.79-0.64 1.74 0.31 2.69 1.12 1.11 1.8 2.34 2.27 3.77 1.73 3.99 5.02 5.42 11.67 5.58 6.96 1.11 12.16 4 16.85 6.58 10.93 5.64 25.55 12.59 41.3 13.22h4.53c17.52-1.94 31.19-9.99 40.45-24.94 1.4-2.43 2.36-5.32 2.36-7.86-1.29 1.91-2.36 4.04-3.89 5.12 1.13-3.37 2.76-6.79 3.57-10.31-0.48-0.32-0.64-0.64-0.32-1.44 0.64-1.59 1.28-3.36 1.75-5.11 0.16 1.23 0.48 2.51 0.96 3.68l1.92 4.77-0.96-1.43c4.03 12.54 13.47 23.98 27.29 29.82 8.25 3.63 14.75 5.39 24.06 4.6 14.98-1.11 27.28-7.81 42.27-14.75 5.51-2.73 9.7-4.32 15.7-4.48 2.98-0.32 7.31-2.48 8.71-7.29 0.8-0.95 1.59-1.74 2.23-2.69 0.8-0.96 0.16-2.71-0.16-4.7zm-40.14-77.47c-2.98 16.06-5.47 27.7-17.92 38.89-4.19 1.11-10.03 0.95-13.42 2.7 4.03 0.79 8.22-0.16 11.2 0.32-7.29 7.26-16.25 10.93-30.54 13.76l10.08-0.79 0.32 0.32c-5.85 1.79-11.69 3.68-17.69 2.39l6 2.28-13.77 1.43c1.89 1.59 5.51 0.64 6.92 0.8 0.96 0.95 2.24 0.95 3.36 0.95 5.5 0.63 11.01 1.27 16.67-0.16l-6 1.59c9.44-0.32 19.18-1.43 26.47-5.42 5.5-3.09 10.53-6.57 14.88-9.29l0.32 0.32c11.82 5.58 17.94 12.84 23.6 23.53-11.82 4.17-15.34 6.06-26.11 12.19-10.4 5.26-22.08 9.74-33.4 8.31-6.31-0.95-14.29-3.17-19.79-7.48-6.46-4.48-11.16-7.96-15.85-14.09l-0.95-0.16c-2.4-2.43-4.3-4.47-5.7-7.95-0.63 1.23-0.31 2.98 0.32 4.57-1.22 2.72-3.91 7.52-7.04 10.47-5.34 5.72-13.94 12.51-19.13 14.26-7.12 2.22-12.31 3.33-18.63 3.33-11.98 0-22.04-5.88-34.82-12.02-7.52-4.16-13.18-6.38-23.26-9.11 6.46-12.06 12.77-18.19 24.59-23.29l0.32-0.32c6.96 6.74 16.4 13.84 26.64 16.27 8.43 1.89 16.84 2.21 21.86 1.25l3.73-1.23-4.03-0.48-3.57-0.95 7.48 0.48-1.58-1.23c6.46-1.94 15.38-2.42 16.66-5.85-4.03 0.47-9.05 0.47-12.67-0.48-11.32-1.59-24.41-5.23-32.23-12.33l-4.03-2.53 9.44 0.47c-3.47-2.57-7.66-2.09-12.35-3.68-12.46-8.51-15.31-21.56-17.8-40.93-0.48-9.61-1.44-20.58-4.13-29.86 5.34-0.48 10.53-1.12 15.22-0.96 7.44 0.8 13.44 2.9 21.2 5.33l0.32 0.16 0.32-0.16-0.32 0.32c-1.59 11.71 1.89 24.58 11.19 34.51 0.8 0.95 1.97 1.59 2.77 1.43 1.12-0.32 1.28-1.42 0.96-3.17 0.8 0 0.96-0.8 0.48-2.86-2.69-8.82-2.37-16.38-0.48-22.97 3.47 3.09 6.45 8.83 10.02 10.1-2.49-6.12-6.37-12.01-9.5-16.49 3.13-14.12 10.42-20.6 20.34-30.83 4.03-4.8 8.22-9.12 12.25-13.11 4.03 5.9 9.22 11.04 14.41 16l0.36 0.16 0.15 0.32c8.93 6.7 13.95 13.66 17.08 25.14-3.73 4.8-7.06 10.34-8.95 15.74 3.89-1.94 6.53-7.47 10.72-10.42 3.47 9.93 2.51 19.38-1.52 31.28-0.64 2.11-1.11 4-1.27 6.11l4.69-8.41-2.21 9.45c1.4 1.59 3.45-1.74 5.34-5.57l1.12 0.63c1.07-3.53 3.12-5.63 4.7-8.06 4.7-11.18 6.28-18.14 3.03-29.99l-0.32-1.94c9.44-3.99 18.36-6.81 27.66-6.18 4.35 0.16 7.48 0.64 10.61 1.11-2.98 9.93-4.04 20.62-4.82 32.08z" fill="#000"/>
  <path d="m149.3 136.9c-0.64-6.13-4.12-12.25-8.15-16.73l-1.58-0.95c-2.3-1.27-4.63-2.38-7.12-2.86-0.8-0.16-1.6-0.16-2.4-0.32-1.12-0.32-2.24-0.32-3.36 0.16-0.8-0.16-1.6-0.16-2.4 0.32-3.33 1.59-8.18 1.59-11.25 4.92-3.33 3.48-6.03 7.64-6.66 12.28v0.64l-0.64 1.42 0.48 0.64-0.8 2.38 0.64 0.64 0.32 3.99 0.79 0.79c1.12 3.33 3.01 6.16 5.31 8.99l0.96 1.11c3.87 3.05 8.16 5.8 15.12 5.48 2.33-0.16 4.63-0.96 6.82-1.99l0.64 0.16 0.64-0.95c3.29-1.75 6.35-4.43 8.8-8.26l1.28-3.63 0.64-0.48c1.28-2.57 1.76-5.35 1.92-7.75z" fill="#000"/>
</svg>