<svg xmlns="http://www.w3.org/2000/svg" width="256" height="256" viewBox="0 0 256 256" fill="none">
<path d="M 152.44,7.56 C 179.04,2.89 209.22,18.16 227.06,38.36 C 244.89,58.56 253.81,87.49 246.68,116.11 C 248.21,90.56 233.88,63.91 215.96,44.49 C 199.41,25.78 180.29,14.19 152.44,7.72 V 7.56 Z" fill="black"/>
<path d="M 147.72,36.71 C 167.79,29.31 197.15,44.06 209.19,64.77 C 219.21,82.03 223.11,97.09 216.48,116.74 C 216.98,94.24 205.48,75.22 189.75,59.28 C 178.73,48.11 166.39,40.61 147.72,37.29 V 36.71 Z" fill="black"/>
<path d="M 143.79,65.08 C 157.47,56.98 180.29,67.26 188.74,83.06 C 195.41,95.49 194.56,105.57 188.28,116.79 C 187.96,98.36 175.72,75.16 143.88,65.76 L 143.79,65.08 Z" fill="black"/>
<path d="M 236.29,146.95 C 235.81,146.38 235.57,145.66 235.57,144.91 C 235.53,142.47 234.51,140.47 234.31,138.91 C 233.31,131.63 230.09,127.61 226.91,128.29 C 225.92,128.53 225.11,129.93 224.59,131.11 C 223.11,129.42 221.99,127.81 220.93,127.61 C 220.45,128.61 220.11,129.7 219.91,130.82 L 219.42,130.49 C 219.38,131.39 219.29,132.28 219.12,133.16 C 215.07,133.64 211.25,135.39 208.27,138.21 L 207.36,138.09 C 202.99,142.24 199.85,147.66 198.09,152.72 C 196.61,162.96 193.19,174.86 185.71,185.06 C 170.22,206.69 148.06,217.47 121.44,217.75 C 78.01,218.21 40.02,184.25 36.41,137.16 L 36.31,130.76 C 33.81,162.11 50.92,192.73 78.91,209.99 L 78.62,209.84 C 49.11,194.83 32.14,168.73 32.53,133.91 C 32.92,101.44 50.04,70.38 86.28,51.71 L 86.09,51.51 C 65.18,60.73 49.35,74.81 38.14,93.74 C 48.72,69.24 71.79,50.07 105.46,39.98 L 105.27,39.6 C 92.83,41.39 81.66,46.11 70.02,51.32 C 79.94,43.32 87.22,41.23 98.39,37.19 L 98.1,37.04 C 88.96,38.74 80.18,42.03 72.23,46.45 L 71.99,46.16 L 77.08,42.51 L 76.79,42.37 C 40.07,58.12 15.07,95.73 14.83,133.81 C 14.78,143.31 15.84,151.84 17.91,158.75 C 15.12,148.81 14.59,139.82 14.83,130.82 C 16.79,84.06 54.78,27.17 143.21,26.93 V 26.79 C 135.11,25.04 129.12,24.56 121.12,24.61 C 81.23,24.95 48.48,41.88 31.76,68.12 C 49.16,43.27 78.11,21.78 121.32,20.08 C 74.09,19.6 33.41,49.19 17.52,81.21 C 16.04,84.71 14.78,87.76 13.72,89.9 C 20.08,74.99 18.92,77.72 18.11,79.13 C 7.99,97.77 6.13,116.16 6.13,134.7 C 6.13,162.67 17.47,189.93 36.17,210.86 C 48.82,226.61 66.22,236.99 81.37,243.01 L 88.14,244.96 C 85.71,243.89 83.26,242.72 80.83,241.51 C 94.13,246.62 106.22,249.01 119.62,248.82 C 154.91,248.34 178.91,234.97 199.85,214.81 C 210.97,204.72 219.52,192.1 226.49,178.02 C 232.91,166.95 237.63,154.47 236.29,146.95 Z M 121.32,242.03 V 241.84 C 149.93,241.41 170.91,232.28 193.73,210.84 C 174.91,230.71 153.12,241.12 121.32,242.03 Z" fill="black"/>
<path d="M 124.16,44.49 H 116.93 V 44.73 L 124.16,44.49 Z" fill="black"/>
</svg>